<?xml version="1.0" encoding="iso-8859-1"?>
<!-- Uploaded to: SVG Repo, www.svgrepo.com, Generator: SVG Repo Mixer Tools -->
<svg version="1.1" id="Layer_1" xmlns="http://www.w3.org/2000/svg" xmlns:xlink="http://www.w3.org/1999/xlink" 
	 viewBox="0 0 511.886 511.886" xml:space="preserve">
<g>
	<rect x="213.283" y="170.621" style="fill:#D7DADD;" width="85.31" height="234.63"/>
	<path style="fill:#D7DADD;" d="M309.259,394.565c0,5.905-4.765,10.686-10.67,10.686c-5.889,0-10.653-4.78-10.653-10.686
		c0-5.874,4.765-10.653,10.653-10.653C304.495,383.912,309.259,388.691,309.259,394.565z"/>
	<path style="fill:#D7DADD;" d="M223.951,394.565c0,5.905-4.78,10.686-10.67,10.686c-5.889,0-10.669-4.78-10.669-10.686
		c0-5.874,4.78-10.653,10.669-10.653C219.171,383.912,223.951,388.691,223.951,394.565z"/>
</g>
<g>
	<circle style="fill:#E6E9ED;" cx="293.263" cy="202.621" r="31.993"/>
	<path style="fill:#E6E9ED;" d="M250.6,202.617c0,17.668-14.309,31.993-31.992,31.993c-17.668,0-31.993-14.325-31.993-31.993
		s14.325-31.992,31.993-31.992C236.292,170.625,250.6,184.949,250.6,202.617z"/>
	<path style="fill:#E6E9ED;" d="M255.943,234.61c-5.889,0-10.669,4.779-10.669,10.669v127.979c0,5.874,4.78,10.654,10.669,10.654
		c5.89,0,10.654-4.78,10.654-10.654V245.279C266.597,239.389,261.833,234.61,255.943,234.61z"/>
	<rect x="218.603" y="170.621" style="fill:#E6E9ED;" width="74.66" height="31.992"/>
</g>
<g>
	<path style="fill:#CCD1D9;" d="M303.932,202.617c0,5.89-4.78,10.67-10.669,10.67c-5.89,0-10.67-4.78-10.67-10.67
		s4.78-10.661,10.67-10.661C299.152,191.956,303.932,196.727,303.932,202.617z"/>
	<path style="fill:#CCD1D9;" d="M229.277,202.617c0,5.89-4.764,10.67-10.669,10.67c-5.89,0-10.654-4.78-10.654-10.67
		s4.765-10.661,10.654-10.661C224.513,191.956,229.277,196.727,229.277,202.617z"/>
</g>
<g>
	<rect x="362.573" y="170.621" style="fill:#D7DADD;" width="85.32" height="234.63"/>
	<path style="fill:#D7DADD;" d="M458.553,394.565c0,5.905-4.765,10.686-10.653,10.686c-5.89,0-10.67-4.78-10.67-10.686
		c0-5.874,4.78-10.653,10.67-10.653C453.789,383.912,458.553,388.691,458.553,394.565z"/>
	<path style="fill:#D7DADD;" d="M373.245,394.565c0,5.905-4.765,10.686-10.669,10.686c-5.89,0-10.654-4.78-10.654-10.686
		c0-5.874,4.765-10.653,10.654-10.653C368.48,383.912,373.245,388.691,373.245,394.565z"/>
</g>
<g>
	<path style="fill:#E6E9ED;" d="M474.549,202.617c0,17.668-14.31,31.993-31.993,31.993c-17.667,0-31.992-14.325-31.992-31.993
		s14.325-31.992,31.992-31.992C460.24,170.625,474.549,184.949,474.549,202.617z"/>
	<circle style="fill:#E6E9ED;" cx="367.923" cy="202.621" r="31.992"/>
	<path style="fill:#E6E9ED;" d="M405.238,234.61c-5.89,0-10.67,4.779-10.67,10.669v127.979c0,5.874,4.78,10.654,10.67,10.654
		c5.889,0,10.669-4.78,10.669-10.654V245.279C415.907,239.389,411.127,234.61,405.238,234.61z"/>
	<rect x="367.923" y="170.621" style="fill:#E6E9ED;" width="74.64" height="31.992"/>
</g>
<g>
	<path style="fill:#CCD1D9;" d="M453.226,202.617c0,5.89-4.764,10.67-10.67,10.67c-5.889,0-10.653-4.78-10.653-10.67
		s4.765-10.661,10.653-10.661C448.463,191.956,453.226,196.727,453.226,202.617z"/>
	<path style="fill:#CCD1D9;" d="M378.572,202.617c0,5.89-4.765,10.67-10.654,10.67c-5.889,0-10.67-4.78-10.67-10.67
		s4.781-10.661,10.67-10.661S378.572,196.727,378.572,202.617z"/>
</g>
<polygon style="fill:#F5F7FA;" points="490.547,170.625 21.325,170.625 0.002,127.97 255.943,0 511.884,127.97 "/>
<rect x="42.648" y="405.251" style="fill:#E6E9ED;" width="426.57" height="63.985"/>
<rect x="21.325" y="447.901" style="fill:#F5F7FA;" width="469.22" height="63.985"/>
<polygon style="fill:#E6E9ED;" points="0.002,127.97 21.325,170.625 490.547,170.625 511.884,127.97 "/>
<g>
	<rect x="63.983" y="170.621" style="fill:#D7DADD;" width="85.31" height="234.63"/>
	<path style="fill:#D7DADD;" d="M159.965,394.565c0,5.905-4.78,10.686-10.67,10.686c-5.889,0-10.669-4.78-10.669-10.686
		c0-5.874,4.78-10.653,10.669-10.653C155.185,383.912,159.965,388.691,159.965,394.565z"/>
	<path style="fill:#D7DADD;" d="M74.641,394.565c0,5.905-4.765,10.686-10.654,10.686s-10.669-4.78-10.669-10.686
		c0-5.874,4.78-10.653,10.669-10.653C69.877,383.912,74.641,388.691,74.641,394.565z"/>
</g>
<g>
	<circle style="fill:#E6E9ED;" cx="143.973" cy="202.621" r="31.993"/>
	<circle style="fill:#E6E9ED;" cx="69.313" cy="202.621" r="31.993"/>
	<path style="fill:#E6E9ED;" d="M106.633,234.61c-5.889,0-10.653,4.779-10.653,10.669v127.979c0,5.874,4.765,10.654,10.653,10.654
		c5.905,0,10.67-4.78,10.67-10.654V245.279C117.303,239.389,112.539,234.61,106.633,234.61z"/>
	<rect x="69.313" y="170.621" style="fill:#E6E9ED;" width="74.65" height="31.992"/>
</g>
<g>
	<path style="fill:#CCD1D9;" d="M154.623,202.617c0,5.89-4.765,10.67-10.654,10.67c-5.889,0-10.669-4.78-10.669-10.67
		s4.78-10.661,10.669-10.661S154.623,196.727,154.623,202.617z"/>
	<path style="fill:#CCD1D9;" d="M79.983,202.617c0,5.89-4.779,10.67-10.669,10.67s-10.67-4.78-10.67-10.67s4.78-10.661,10.67-10.661
		S79.983,196.727,79.983,202.617z"/>
</g>
</svg>